<svg id="visual" viewBox="0 0 900 600" width="900" height="600" xmlns="http://www.w3.org/2000/svg" xmlns:xlink="http://www.w3.org/1999/xlink" version="1.1"><rect x="0" y="0" width="900" height="600" fill="#222831"></rect><path d="M0 453L37.5 465.8C75 478.7 150 504.3 225 503.5C300 502.7 375 475.3 450 459.2C525 443 600 438 675 444C750 450 825 467 862.5 475.5L900 484L900 601L862.5 601C825 601 750 601 675 601C600 601 525 601 450 601C375 601 300 601 225 601C150 601 75 601 37.5 601L0 601Z" fill="#00ADB5" stroke-linecap="round" stroke-linejoin="miter"></path></svg>